<svg xmlns="http://www.w3.org/2000/svg" width="109" height="35" viewBox="0 0 109 35">
    <defs>
        <linearGradient id="a" x1="50%" x2="50%" y1="0%" y2="100%">
            <stop offset="0%" stop-color="#080808"/>
            <stop offset="100%" stop-color="#0F0F0F"/>
        </linearGradient>
        <linearGradient id="b" x1="50%" x2="50%" y1="100%" y2="0%">
            <stop offset="0%" stop-color="#2B5972"/>
            <stop offset="100%" stop-color="#427FA2"/>
        </linearGradient>
    </defs>
    <g fill="none" fill-rule="nonzero">
        <path fill="url(#a)" d="M0 20.817L8.298 12l6.128 6.472-2.128 2.345-.638-.677-1.788 1.872 2.894 3.112h3.553L13 21.538l2.128-2.322L30 35H13.404z"/>
        <path fill="url(#b)" d="M32 14.183L23.702 23l-6.128-6.472 2.128-2.345.638.677 1.788-1.872-2.894-3.112h-3.553L19 13.462l-2.128 2.322L2 0h16.596z"/>
        <g fill="#0B0B0B">
            <path d="M45.548 17.155l-1.032 4.69h-6.513L43.278 1.89C43.543.819 44.398.126 45.43.126h5.806c1.031 0 1.886.693 2.15 1.763l5.276 19.956H52.15l-1.032-4.69h-5.57zm3.536-9.443c-.147-.787-.295-1.7-.354-2.487h-.795c-.089.787-.207 1.7-.354 2.487l-1.002 4.659h3.507l-1.002-4.66zM66.264 15.298c0 .66.472 1.133 1.238 1.133h6.838l.294 5.1c-3.035.44-6.601.44-9.932.44-2.947 0-4.833-2.015-4.833-4.942V.126h6.395v15.172zM91.55 21.562c-2.948.409-7.074.409-10.58.409-2.8 0-4.775-2.015-4.775-4.942V4.942C76.195 2.015 78.17 0 80.97 0c3.506 0 7.633 0 10.58.41l-.295 4.815h-7.456c-.737 0-1.208.472-1.208 1.134v2.108h7.603V13h-7.603v2.612c0 .661.471 1.134 1.208 1.134h7.456l.295 4.816zM101.51 5.225c-.796 0-1.268.472-1.268 1.134v2.55h7.28v4.532h-7.28v8.404h-6.395V4.942C93.847 2.015 95.851 0 98.68 0c3.39 0 7.427 0 10.227.44l-.295 4.785h-7.102z"/>
        </g>
        <g fill="#0B0B0B">
            <path d="M38.043 30.18c.374-.034.797-.061 1.295-.061 1.05 0 1.424.605 1.424 2.378 0 1.773-.373 2.378-1.424 2.378-.498 0-.916-.027-1.295-.06v-4.636zm.352 4.292c.271.007.58.013.943.013.785 0 1.05-.504 1.05-1.988 0-1.485-.265-1.995-1.05-1.995-.363 0-.661.013-.943.02v3.95zM47.312 34.781c-.51.04-1.067.04-1.598.04-.4 0-.66-.302-.66-.766V30.94c0-.464.265-.767.66-.767.53 0 1.089 0 1.598.041l-.022.336h-1.516c-.233 0-.363.168-.363.49v1.136h1.668v.355H45.41v1.431c0 .316.13.484.363.484h1.516l.022.336zM53.027 34.687c-.021.074-.075.128-.14.128h-.396c-.065 0-.124-.054-.14-.128l-1.187-4.508h.369l.964 3.782c.043.168.08.337.119.504h.146c.038-.167.076-.336.12-.504l.963-3.782h.369l-1.187 4.508zM60.509 34.781c-.51.04-1.067.04-1.598.04-.4 0-.66-.302-.66-.766V30.94c0-.464.265-.767.66-.767.53 0 1.089 0 1.598.041l-.022.336h-1.516c-.233 0-.363.168-.363.49v1.136h1.668v.355h-1.668v1.431c0 .316.13.484.363.484h1.516l.022.336zM65.098 33.955c0 .322.135.49.39.49h1.392l.01.336c-.476.034-.974.04-1.462.04-.47 0-.687-.342-.687-.806V30.18h.357v3.776zM73.609 32.497c0 1.794-.374 2.398-1.44 2.398-1.068 0-1.442-.604-1.442-2.398s.374-2.398 1.441-2.398c1.067 0 1.44.604 1.44 2.398zm-2.513 0c0 1.505.27 2.008 1.072 2.008s1.067-.503 1.067-2.008-.265-2.009-1.067-2.009c-.801 0-1.072.504-1.072 2.009zM77.932 30.18c.396-.048.666-.054 1.251-.054.861 0 1.16.309 1.16 1.417 0 1.115-.299 1.418-1.122 1.418-.368 0-.704-.027-.937-.054v1.908h-.352v-4.636zm1.246 2.398c.596-.007.802-.215.802-1.035 0-.826-.206-1.041-.802-1.041-.363 0-.677.007-.894.013v2.063h.894zM88.03 30.18c.102 0 .157.073.157.194l.157 4.44h-.352l-.146-4.265h-.12l-.969 3.634c-.027.101-.076.148-.163.148h-.357c-.081 0-.136-.047-.163-.148L85.1 30.55h-.114l-.141 4.266h-.352l.152-4.44c0-.122.054-.196.157-.196h.428c.08 0 .13.054.157.155l.818 3.023c.054.215.102.416.151.631h.12c.048-.215.102-.423.156-.638l.818-3.016c.022-.1.076-.155.157-.155h.423zM94.958 34.781c-.51.04-1.067.04-1.598.04-.4 0-.66-.302-.66-.766V30.94c0-.464.265-.767.66-.767.53 0 1.089 0 1.598.041l-.022.336h-1.517c-.232 0-.362.168-.362.49v1.136h1.668v.355h-1.668v1.431c0 .316.13.484.362.484h1.517l.022.336zM101.984 34.626c0 .128-.049.189-.146.189h-.38c-.086 0-.135-.047-.173-.148l-1.424-3.52c-.065-.168-.163-.383-.211-.558h-.103c.01.181.01.37.01.558v3.668h-.351v-4.448c0-.127.048-.187.146-.187h.368c.087 0 .135.046.173.147l1.392 3.44c.076.188.168.416.25.624h.113c-.01-.221-.016-.443-.016-.665V30.18h.352v4.446zM107.678 30.569v4.246h-.358v-4.246h-1.24v-.39h2.843v.39z"/>
        </g>
        <path fill="#0B0B0B" d="M38 27h71v1H38z"/>
    </g>
</svg>
